<svg id="Layer_1" data-name="Layer 1" xmlns="http://www.w3.org/2000/svg" viewBox="0 0 298.78 298.82"><defs><style>.cls-1{fill:white;stroke-width:10px;}.cls-1,.cls-2{stroke:white;stroke-miterlimit:10;}.cls-2{fill:none;stroke-width:3px;}</style></defs><title>chebyshev</title><polyline class="cls-1" points="222.5 18.37 212.17 38.37 194.84 68.37 172.84 107.04 147.84 149.37 122.5 193.71 96.5 238.71 76.17 273.37"/><polyline class="cls-1" points="76.17 24.37 96.84 60.04 122.5 104.37 147.84 149.37 172.84 191.71 195.5 231.04 212.17 259.7 222.5 277.04"/><polyline class="cls-1" points="291.84 149.04 250.5 149.04 199.5 149.04 147.84 149.37 98.5 149.37 54.51 149.04 19.84 149.04 0.51 149.04"/><polyline class="cls-2" points="286.5 90.7 285.17 94.7 272.5 115.7 250.5 149.04 224.5 189.71 195.5 231.04 163.17 268.37 126.5 294.37 89.17 288.7"/><polyline class="cls-2" points="137.17 296.7 175.34 291.04 212.17 259.7 243.84 222.37 272.5 182.71 291.84 149.04 297.84 129.04 272.5 115.7 224.5 109.04 172.5 105.2 122.5 104.37 76.17 103.37 37.17 103.37 12.51 101.37 4.17 100.04 0.51 149.04 12.51 196.71 33.51 241.04 57.17 269.04"/><polyline class="cls-2" points="177.5 298.37 178.66 297.82 222.5 277.04 257.17 242.71 285.17 203.04 297.84 168.04 272.5 182.71 224.5 189.71 172.84 191.71 122.5 193.71 76.17 194.71 37.51 195.71 12.51 196.71 4.84 198.04 0.51 149.04 12.51 101.37 33.51 57.7 57.17 28.7 76.17 24.37 114.84 24.37 163.5 29.7 212.17 38.37 256.5 54.7 282.5 84.7"/><polyline class="cls-2" points="129.17 0.7 126.5 4.04 114.84 24.37 96.84 60.04 76.17 103.37 54.51 149.04 37.51 195.71 33.51 241.04 57.3 239.96 96.5 238.71 146.17 235.04 195.5 231.04 243.84 222.37 285.17 203.04"/><polyline class="cls-2" points="25.5 65.04 12.51 101.37 19.84 149.04 37.51 195.71 57.3 239.96 76.17 273.37 89.17 288.7 114.84 273.37 146.17 235.04 172.84 191.71 199.5 149.04 224.5 109.04 243.84 75.37 256.5 54.7 261.5 47.37"/><line class="cls-2" x1="129.51" y1="298.37" x2="126.51" y2="294.37"/><polyline class="cls-2" points="261.5 249.55 257.17 242.71 243.84 222.37 224.5 189.71 199.5 149.04 173.83 105.3 145.18 62.82 114.84 24.37 89.17 9.37 76.17 24.37 57.17 58.7 37.17 103.37 19.84 149.04 12.51 196.71 25.5 233.21"/><polyline class="cls-2" points="28.92 57.7 33.51 57.7 37.17 103.37 54.51 149.04 76.17 194.71 96.5 238.71 114.84 273.37 126.5 294.37 175.34 291.04 222.5 277.04 263.17 248.37"/><polyline class="cls-2" points="297.84 129.04 285.17 94.7 243.84 75.37 194.84 68.37 145.18 62.82 96.84 60.04 57.17 58.7 33.51 57.7"/><polyline class="cls-2" points="263.17 49.45 221.12 21.05 256.5 54.7 285.17 94.7"/><polyline class="cls-2" points="89.17 9.37 126.5 4.04 163.5 29.7 194.84 68.37 224.5 109.04 250.5 149.04 272.5 182.71 285.17 203.04 286.5 206.37"/><polyline class="cls-2" points="125.42 4.19 175.34 8.37 222.5 21.98 177.5 0.7 175.34 8.37 163.5 29.7 144.5 64.04 122.5 104.37 98.5 149.37 76.17 194.71 57.3 239.96 57.17 269.04 78.17 273.37 114.84 273.37 163.17 268.37 212.17 259.7 257.17 242.71 282.5 212.87"/><polyline class="cls-2" points="57.17 28.7 57.17 58.7 76.17 103.37 98.5 149.37 122.5 193.71 146.17 235.04 163.17 268.37 175.34 291.04 178.66 297.82"/><polyline class="cls-2" points="297.84 168.04 291.84 149.04 272.5 115.7 243.84 75.37 212.17 38.37 175.34 8.37 137 0.7"/></svg>