<svg xmlns="http://www.w3.org/2000/svg" viewBox="0 0 446.67892 449">
  <defs>
    <style>
      .cls-1 {
        isolation: isolate;
      }

      .cls-2 {
        opacity: 0.75;
        mix-blend-mode: multiply;
      }

      .cls-3 {
        fill: #4682b4;
      }
    </style>
  </defs>
  <title>Logo</title>
  <g class="cls-1">
    <g id="Défaut">
      <g>
        <g class="cls-2">
          <path d="M393.07409,107.54c.1341-.1341.1002-.265.0736-.4213a2.92984,2.92984,0,0,0-.2945-.803,18.9573,18.9573,0,0,0-1.8253-2.8344c-1.1114-1.516-2.2954-2.9697-3.5035-4.4079-1.596-1.8999-3.2368-3.7587-4.9023-5.5976-3.9749-4.3889-8.075-8.6503-12.2613-12.8366s-8.4479-8.2866-12.8369-12.2616c-1.8388-1.6654-3.6976-3.3062-5.5975-4.9022-1.4381-1.2081-2.8918-2.392-4.4078-3.5033a18.94842,18.94842,0,0,0-2.8343-1.8253,2.93452,2.93452,0,0,0-.803-.2946c-.1563-.0265-.2872-.0604-.4213.0737s-.1002.2649-.0736.4212a2.9319,2.9319,0,0,0,.2946.8031,18.96145,18.96145,0,0,0,1.8253,2.8343c1.1113,1.516,2.2953,2.9697,3.5034,4.4079,1.596,1.8999,3.2369,3.7587,4.9023,5.5976,3.975,4.3889,8.0751,8.6504,12.2614,12.8366,4.1863,4.1864,8.4478,8.2866,12.8368,12.2616,1.8389,1.6654,3.6977,3.3062,5.5976,4.9022,1.4381,1.2081,2.8918,2.3921,4.4078,3.5034a18.95575,18.95575,0,0,0,2.8343,1.8252,2.93006,2.93006,0,0,0,.803.2946C392.80919,107.64021,392.94009,107.67411,393.07409,107.54Z"/>
        </g>
        <path class="cls-3" d="M391.07409,103.54c.1341-.1341.1002-.265.0736-.4213a2.92984,2.92984,0,0,0-.2945-.803,18.9573,18.9573,0,0,0-1.8253-2.8344c-1.1114-1.516-2.2954-2.9697-3.5035-4.4079-1.596-1.8999-3.2368-3.7587-4.9023-5.5976-3.9749-4.3889-8.075-8.6503-12.2613-12.8366s-8.4479-8.2866-12.8369-12.2616c-1.8388-1.6654-3.6976-3.3062-5.5975-4.9022-1.4381-1.2081-2.8918-2.392-4.4078-3.5033a18.94842,18.94842,0,0,0-2.8343-1.8253,2.93452,2.93452,0,0,0-.803-.2946c-.1563-.0265-.2872-.0604-.4213.0737s-.1002.2649-.0736.4212a2.9319,2.9319,0,0,0,.2946.8031,18.96145,18.96145,0,0,0,1.8253,2.8343c1.1113,1.516,2.2953,2.9697,3.5034,4.4079,1.596,1.8999,3.2369,3.7587,4.9023,5.5976,3.975,4.3889,8.0751,8.6504,12.2614,12.8366,4.1863,4.1864,8.4478,8.2866,12.8368,12.2616,1.8389,1.6654,3.6977,3.3062,5.5976,4.9022,1.4381,1.2081,2.8918,2.3921,4.4078,3.5034a18.95575,18.95575,0,0,0,2.8343,1.8252,2.93006,2.93006,0,0,0,.803.2946C390.80919,103.64021,390.94009,103.67411,391.07409,103.54Z"/>
      </g>
      <g>
        <g class="cls-2">
          <path d="M411.60419,150.21211a3.65178,3.65178,0,0,1-2.1679,1.0968,8.99508,8.99508,0,0,1-3.5241-.1468,23.43731,23.43731,0,0,1-4.7601-1.5877,47.10894,47.10894,0,0,1-5.6115-2.9728,91.49892,91.49892,0,0,1-25.2047-23.705,47.07474,47.07474,0,0,1-3.3089-5.4159,23.41519,23.41519,0,0,1-1.8749-4.651,8.99031,8.99031,0,0,1-.3618-3.5066,3.56425,3.56425,0,0,1,3.1292-3.3268,8.99747,8.99747,0,0,1,3.5242.1467,23.4285,23.4285,0,0,1,4.76,1.5878,47.09572,47.09572,0,0,1,5.6116,2.9728,91.49892,91.49892,0,0,1,25.2047,23.705,47.05682,47.05682,0,0,1,3.3088,5.4159,23.41554,23.41554,0,0,1,1.875,4.651,8.99219,8.99219,0,0,1,.3618,3.5066A3.65046,3.65046,0,0,1,411.60419,150.21211Z"/>
        </g>
        <path class="cls-3" d="M409.60419,146.21211a3.65178,3.65178,0,0,1-2.1679,1.0968,8.99508,8.99508,0,0,1-3.5241-.1468,23.43731,23.43731,0,0,1-4.7601-1.5877,47.10894,47.10894,0,0,1-5.6115-2.9728,91.49892,91.49892,0,0,1-25.2047-23.705,47.07474,47.07474,0,0,1-3.3089-5.4159,23.41519,23.41519,0,0,1-1.8749-4.651,8.99031,8.99031,0,0,1-.3618-3.5066,3.56425,3.56425,0,0,1,3.1292-3.3268,8.99747,8.99747,0,0,1,3.5242.1467,23.4285,23.4285,0,0,1,4.76,1.5878,47.09572,47.09572,0,0,1,5.6116,2.9728,91.49892,91.49892,0,0,1,25.2047,23.705,47.05682,47.05682,0,0,1,3.3088,5.4159,23.41554,23.41554,0,0,1,1.875,4.651,8.99219,8.99219,0,0,1,.3618,3.5066A3.65046,3.65046,0,0,1,409.60419,146.21211Z"/>
      </g>
      <g>
        <g class="cls-2">
          <path d="M422.53869,196.48861a13.25731,13.25731,0,0,1-6.9511,4.1962,22.62427,22.62427,0,0,1-10.5288-.0885,42.0721,42.0721,0,0,1-27.8616-23.5931,22.622,22.622,0,0,1-1.8221-10.3695,12.71129,12.71129,0,0,1,9.9442-11.7432,22.62427,22.62427,0,0,1,10.5288.0885,42.07268,42.07268,0,0,1,27.8616,23.5931,22.6218,22.6218,0,0,1,1.8221,10.3695A13.25708,13.25708,0,0,1,422.53869,196.48861Z"/>
        </g>
        <path class="cls-3" d="M420.53869,192.48861a13.25731,13.25731,0,0,1-6.9511,4.1962,22.62427,22.62427,0,0,1-10.5288-.0885,42.0721,42.0721,0,0,1-27.8616-23.5931,22.622,22.622,0,0,1-1.8221-10.3695,12.71129,12.71129,0,0,1,9.9442-11.7432,22.62427,22.62427,0,0,1,10.5288.0885,42.07268,42.07268,0,0,1,27.8616,23.5931,22.6218,22.6218,0,0,1,1.8221,10.3695A13.25708,13.25708,0,0,1,420.53869,192.48861Z"/>
      </g>
      <g>
        <g class="cls-2">
          <circle cx="404.71776" cy="229.00011" r="24.81236" transform="translate(-33.67827 384.06924) rotate(-48.98201)"/>
        </g>
        <circle class="cls-3" cx="402.71776" cy="225.00011" r="24.81236" transform="translate(-31.34767 381.18542) rotate(-48.98201)"/>
      </g>
      <g>
        <g class="cls-2">
          <path d="M414.505,292.39431a40.09075,40.09075,0,0,1-15.1057,11.064,22.62217,22.62217,0,0,1-10.3901,1.7013,12.71243,12.71243,0,0,1-11.6276-10.0799,22.62222,22.62222,0,0,1,.2101-10.5267,42.06924,42.06924,0,0,1,23.9143-27.5862,22.6228,22.6228,0,0,1,10.3902-1.7013,12.71269,12.71269,0,0,1,11.6276,10.0799,22.62445,22.62445,0,0,1-.2101,10.5266A40.09223,40.09223,0,0,1,414.505,292.39431Z"/>
        </g>
        <path class="cls-3" d="M412.505,288.39431a40.09075,40.09075,0,0,1-15.1057,11.064,22.62217,22.62217,0,0,1-10.3901,1.7013,12.71243,12.71243,0,0,1-11.6276-10.0799,22.62222,22.62222,0,0,1,.2101-10.5267,42.06924,42.06924,0,0,1,23.9143-27.5862,22.6228,22.6228,0,0,1,10.3902-1.7013,12.71269,12.71269,0,0,1,11.6276,10.0799,22.62445,22.62445,0,0,1-.2101,10.5266A40.09223,40.09223,0,0,1,412.505,288.39431Z"/>
      </g>
      <g>
        <g class="cls-2">
          <path d="M396.41309,335.72171a86.52867,86.52867,0,0,1-12.2783,12.306,47.07311,47.07311,0,0,1-5.1876,3.6564,23.4125,23.4125,0,0,1-4.5184,2.1754,8.9918,8.9918,0,0,1-3.4755.5907,3.56528,3.56528,0,0,1-3.525-2.9049,8.99422,8.99422,0,0,1-.0848-3.5263,23.432,23.432,0,0,1,1.2722-4.8538,47.09012,47.09012,0,0,1,2.5984-5.7942,91.48643,91.48643,0,0,1,22.0028-26.704,47.07311,47.07311,0,0,1,5.1876-3.6564,23.4125,23.4125,0,0,1,4.5184-2.1754,8.9918,8.9918,0,0,1,3.4755-.5907,3.56528,3.56528,0,0,1,3.525,2.9049,8.99422,8.99422,0,0,1,.0848,3.5263,23.432,23.432,0,0,1-1.2722,4.8538,47.09685,47.09685,0,0,1-2.5984,5.7942A86.54049,86.54049,0,0,1,396.41309,335.72171Z"/>
        </g>
        <path class="cls-3" d="M394.41309,331.72171a86.52867,86.52867,0,0,1-12.2783,12.306,47.07311,47.07311,0,0,1-5.1876,3.6564,23.4125,23.4125,0,0,1-4.5184,2.1754,8.9918,8.9918,0,0,1-3.4755.5907,3.56528,3.56528,0,0,1-3.525-2.9049,8.99422,8.99422,0,0,1-.0848-3.5263,23.432,23.432,0,0,1,1.2722-4.8538,47.09012,47.09012,0,0,1,2.5984-5.7942,91.48643,91.48643,0,0,1,22.0028-26.704,47.07311,47.07311,0,0,1,5.1876-3.6564,23.4125,23.4125,0,0,1,4.5184-2.1754,8.9918,8.9918,0,0,1,3.4755-.5907,3.56528,3.56528,0,0,1,3.525,2.9049,8.99422,8.99422,0,0,1,.0848,3.5263,23.432,23.432,0,0,1-1.2722,4.8538,47.09685,47.09685,0,0,1-2.5984,5.7942A86.54049,86.54049,0,0,1,394.41309,331.72171Z"/>
      </g>
      <g>
        <g class="cls-2">
          <path d="M366.17279,373.17471c-4.1865,4.1865-8.2868,8.4481-12.262,12.837-1.6653,1.8387-3.3061,3.6972-4.902,5.5968-1.208,1.4379-2.3919,2.8914-3.5033,4.407a18.96427,18.96427,0,0,0-1.8254,2.8337,2.93161,2.93161,0,0,0-.2947.8027c-.0266.1562-.0606.287.0734.421s.2649.1001.4211.0734a2.93226,2.93226,0,0,0,.8029-.2948,18.97558,18.97558,0,0,0,2.8341-1.8258c1.5159-1.1116,2.9696-2.2958,4.4077-3.5041,1.8999-1.5962,3.7587-3.2373,5.5976-4.9029,4.3881-3.9746,8.6489-8.0742,12.8346-12.26,4.1865-4.1865,8.2868-8.4481,12.262-12.8371,1.6653-1.8386,3.3061-3.6971,4.902-5.5967,1.208-1.4379,2.392-2.8914,3.5033-4.407a18.96427,18.96427,0,0,0,1.8254-2.8337,2.93281,2.93281,0,0,0,.2947-.8027c.0267-.1562.0607-.287-.0734-.421s-.2649-.1001-.421-.0734a2.92987,2.92987,0,0,0-.8029.2948,18.97141,18.97141,0,0,0-2.8342,1.8258c-1.5159,1.1116-2.9696,2.2958-4.4077,3.5041-1.8999,1.5962-3.7587,3.2373-5.5976,4.9029C374.61929,364.88931,370.35849,368.98891,366.17279,373.17471Z"/>
        </g>
        <path class="cls-3" d="M364.17279,369.17471c-4.1865,4.1865-8.2868,8.4481-12.262,12.837-1.6653,1.8387-3.3061,3.6972-4.902,5.5968-1.208,1.4379-2.3919,2.8914-3.5033,4.407a18.96427,18.96427,0,0,0-1.8254,2.8337,2.93161,2.93161,0,0,0-.2947.8027c-.0266.1562-.0606.287.0734.421s.2649.1001.4211.0734a2.93226,2.93226,0,0,0,.8029-.2948,18.97558,18.97558,0,0,0,2.8341-1.8258c1.5159-1.1116,2.9696-2.2958,4.4077-3.5041,1.8999-1.5962,3.7587-3.2373,5.5976-4.9029,4.3881-3.9746,8.6489-8.0742,12.8346-12.26,4.1865-4.1865,8.2868-8.4481,12.262-12.8371,1.6653-1.8386,3.3061-3.6971,4.902-5.5967,1.208-1.4379,2.392-2.8914,3.5033-4.407a18.96427,18.96427,0,0,0,1.8254-2.8337,2.93281,2.93281,0,0,0,.2947-.8027c.0267-.1562.0607-.287-.0734-.421s-.2649-.1001-.421-.0734a2.92987,2.92987,0,0,0-.8029.2948,18.97141,18.97141,0,0,0-2.8342,1.8258c-1.5159,1.1116-2.9696,2.2958-4.4077,3.5041-1.8999,1.5962-3.7587,3.2373-5.5976,4.9029C372.61929,360.88931,368.35849,364.98891,364.17279,369.17471Z"/>
      </g>
      <g>
        <g class="cls-2">
          <path d="M343.907,85.24831a3.65192,3.65192,0,0,1-2.2311.9616,8.99616,8.99616,0,0,1-3.5085-.3628,23.43044,23.43044,0,0,1-4.6536-1.877,47.09724,47.09724,0,0,1-5.4185-3.3116,86.55858,86.55858,0,0,1-13.05-11.4696,86.53873,86.53873,0,0,1-10.652-13.7379,47.07783,47.07783,0,0,1-2.9702-5.6088,23.42256,23.42256,0,0,1-1.5859-4.7574,8.99293,8.99293,0,0,1-.1459-3.5222,3.56439,3.56439,0,0,1,3.3276-3.1283,8.99473,8.99473,0,0,1,3.5086.3627,23.43559,23.43559,0,0,1,4.6535,1.877,47.08944,47.08944,0,0,1,5.4185,3.3117,91.49728,91.49728,0,0,1,23.702,25.2074,47.071,47.071,0,0,1,2.9702,5.6088,23.41846,23.41846,0,0,1,1.5859,4.7574,8.993,8.993,0,0,1,.1459,3.5222A3.6513,3.6513,0,0,1,343.907,85.24831Z"/>
        </g>
        <path class="cls-3" d="M341.907,81.24831a3.65192,3.65192,0,0,1-2.2311.9616,8.99616,8.99616,0,0,1-3.5085-.3628,23.43044,23.43044,0,0,1-4.6536-1.877,47.09724,47.09724,0,0,1-5.4185-3.3116,86.55858,86.55858,0,0,1-13.05-11.4696,86.53873,86.53873,0,0,1-10.652-13.7379,47.07783,47.07783,0,0,1-2.9702-5.6088,23.42256,23.42256,0,0,1-1.5859-4.7574,8.99293,8.99293,0,0,1-.1459-3.5222,3.56439,3.56439,0,0,1,3.3276-3.1283,8.99473,8.99473,0,0,1,3.5086.3627,23.43559,23.43559,0,0,1,4.6535,1.877,47.08944,47.08944,0,0,1,5.4185,3.3117,91.49728,91.49728,0,0,1,23.702,25.2074,47.071,47.071,0,0,1,2.9702,5.6088,23.41846,23.41846,0,0,1,1.5859,4.7574,8.993,8.993,0,0,1,.1459,3.5222A3.6513,3.6513,0,0,1,341.907,81.24831Z"/>
      </g>
      <g>
        <g class="cls-2">
          <path d="M355.929,137.8a13.03065,13.03065,0,0,1-7.4612,3.567,23.62051,23.62051,0,0,1-10.8752-1.2604,45.52348,45.52348,0,0,1-26.7-26.7016,23.617,23.617,0,0,1-1.2594-10.8738,12.41833,12.41833,0,0,1,11.028-11.0271,23.622,23.622,0,0,1,10.8752,1.2603,45.52491,45.52491,0,0,1,26.7,26.7016,23.61977,23.61977,0,0,1,1.2594,10.8738A13.0304,13.0304,0,0,1,355.929,137.8Z"/>
        </g>
        <path class="cls-3" d="M353.929,133.8a13.03065,13.03065,0,0,1-7.4612,3.567,23.62051,23.62051,0,0,1-10.8752-1.2604,45.52348,45.52348,0,0,1-26.7-26.7016,23.617,23.617,0,0,1-1.2594-10.8738,12.41833,12.41833,0,0,1,11.028-11.0271,23.622,23.622,0,0,1,10.8752,1.2603,45.52491,45.52491,0,0,1,26.7,26.7016,23.61977,23.61977,0,0,1,1.2594,10.8738A13.0304,13.0304,0,0,1,353.929,133.8Z"/>
      </g>
      <g>
        <g class="cls-2">
          <path d="M362.53,192.42181a18.40542,18.40542,0,0,1-7.8208,4.9395,23.85574,23.85574,0,0,1-10.8957.7993,35.49029,35.49029,0,0,1-28.2224-26.2307,23.85747,23.85747,0,0,1,.0012-10.9251,18.08372,18.08372,0,0,1,12.1759-13.1003,23.85574,23.85574,0,0,1,10.8957-.7993,35.49,35.49,0,0,1,28.2224,26.2306,23.8579,23.8579,0,0,1-.0012,10.9252A18.4065,18.4065,0,0,1,362.53,192.42181Z"/>
        </g>
        <path class="cls-3" d="M360.53,188.42181a18.40542,18.40542,0,0,1-7.8208,4.9395,23.85574,23.85574,0,0,1-10.8957.7993,35.49029,35.49029,0,0,1-28.2224-26.2307,23.85747,23.85747,0,0,1,.0012-10.9251,18.08372,18.08372,0,0,1,12.1759-13.1003,23.85574,23.85574,0,0,1,10.8957-.7993,35.49,35.49,0,0,1,28.2224,26.2306,23.8579,23.8579,0,0,1-.0012,10.9252A18.4065,18.4065,0,0,1,360.53,188.42181Z"/>
      </g>
      <g>
        <g class="cls-2">
          <circle cx="343.83771" cy="228.99941" r="26.42525" transform="translate(-65.43226 285.24167) rotate(-41.48865)"/>
        </g>
        <circle class="cls-3" cx="341.83771" cy="224.99941" r="26.42525" transform="translate(-63.2842 282.91307) rotate(-41.48865)"/>
      </g>
      <g>
        <g class="cls-2">
          <path d="M357.54169,301.05791a34.24879,34.24879,0,0,1-17.4538,9.9391,23.85727,23.85727,0,0,1-10.9239-.191,18.08229,18.08229,0,0,1-12.8861-12.4019,23.8564,23.8564,0,0,1-.609-10.9078,35.49233,35.49233,0,0,1,26.7182-27.7616,23.85767,23.85767,0,0,1,10.924.191,18.08218,18.08218,0,0,1,12.8861,12.402,23.85589,23.85589,0,0,1,.609,10.9077A34.24762,34.24762,0,0,1,357.54169,301.05791Z"/>
        </g>
        <path class="cls-3" d="M355.54169,297.05791a34.24879,34.24879,0,0,1-17.4538,9.9391,23.85727,23.85727,0,0,1-10.9239-.191,18.08229,18.08229,0,0,1-12.8861-12.4019,23.8564,23.8564,0,0,1-.609-10.9078,35.49233,35.49233,0,0,1,26.7182-27.7616,23.85767,23.85767,0,0,1,10.924.191,18.08218,18.08218,0,0,1,12.8861,12.402,23.85589,23.85589,0,0,1,.609,10.9077A34.24762,34.24762,0,0,1,355.54169,297.05791Z"/>
      </g>
      <g>
        <g class="cls-2">
          <path d="M347.78,354.78191a43.32328,43.32328,0,0,1-16.2499,10.452,23.62065,23.62065,0,0,1-10.8743,1.2603,12.41616,12.41616,0,0,1-11.0265-11.0273,23.62147,23.62147,0,0,1,1.2612-10.8751,45.53056,45.53056,0,0,1,26.7018-26.7002,23.6205,23.6205,0,0,1,10.8743-1.2603,12.41616,12.41616,0,0,1,11.0265,11.0273,23.62147,23.62147,0,0,1-1.2612,10.8751A43.32358,43.32358,0,0,1,347.78,354.78191Z"/>
        </g>
        <path class="cls-3" d="M345.78,350.78191a43.32328,43.32328,0,0,1-16.2499,10.452,23.62065,23.62065,0,0,1-10.8743,1.2603,12.41616,12.41616,0,0,1-11.0265-11.0273,23.62147,23.62147,0,0,1,1.2612-10.8751,45.53056,45.53056,0,0,1,26.7018-26.7002,23.6205,23.6205,0,0,1,10.8743-1.2603,12.41616,12.41616,0,0,1,11.0265,11.0273,23.62147,23.62147,0,0,1-1.2612,10.8751A43.32358,43.32358,0,0,1,345.78,350.78191Z"/>
      </g>
      <g>
        <g class="cls-2">
          <path d="M328.71979,403.41451a86.524,86.524,0,0,1-14.4064,9.7286,47.05539,47.05539,0,0,1-5.7913,2.59579,23.41136,23.41136,0,0,1-4.8511,1.2704,8.98991,8.98991,0,0,1-3.5243-.0856,3.56566,3.56566,0,0,1-2.9041-3.52589,8.99591,8.99591,0,0,1,.5914-3.4774,23.43054,23.43054,0,0,1,2.1774-4.5206,47.11763,47.11763,0,0,1,3.659-5.1899,91.4764,91.4764,0,0,1,26.7063-21.9994,47.04256,47.04256,0,0,1,5.7913-2.5959,23.41136,23.41136,0,0,1,4.8511-1.2704,8.9918,8.9918,0,0,1,3.5243.0856,3.56566,3.56566,0,0,1,2.9041,3.526,8.99541,8.99541,0,0,1-.5914,3.4773,23.42836,23.42836,0,0,1-2.1774,4.5207,47.11641,47.11641,0,0,1-3.659,5.1898A86.54343,86.54343,0,0,1,328.71979,403.41451Z"/>
        </g>
        <path class="cls-3" d="M326.71979,399.41451a86.524,86.524,0,0,1-14.4064,9.7286,47.05539,47.05539,0,0,1-5.7913,2.59579,23.41136,23.41136,0,0,1-4.8511,1.2704,8.98991,8.98991,0,0,1-3.5243-.0856,3.56566,3.56566,0,0,1-2.9041-3.52589,8.99591,8.99591,0,0,1,.5914-3.4774,23.43054,23.43054,0,0,1,2.1774-4.5206,47.11763,47.11763,0,0,1,3.659-5.1899,91.4764,91.4764,0,0,1,26.7063-21.9994,47.04256,47.04256,0,0,1,5.7913-2.5959,23.41136,23.41136,0,0,1,4.8511-1.2704,8.9918,8.9918,0,0,1,3.5243.0856,3.56566,3.56566,0,0,1,2.9041,3.526,8.99541,8.99541,0,0,1-.5914,3.4773,23.42836,23.42836,0,0,1-2.1774,4.5207,47.11641,47.11641,0,0,1-3.659,5.1898A86.54343,86.54343,0,0,1,326.71979,399.41451Z"/>
      </g>
      <g>
        <g class="cls-2">
          <path d="M291.91339,72.63181a13.25747,13.25747,0,0,1-7.5476,2.9931,22.62418,22.62418,0,0,1-10.3703-1.8226,40.09535,40.09535,0,0,1-14.9753-11.2383,40.09533,40.09533,0,0,1-8.6168-16.6241,22.62355,22.62355,0,0,1-.0881-10.528,12.71149,12.71149,0,0,1,11.7437-9.9437,22.624,22.624,0,0,1,10.3702,1.8226,40.0956,40.0956,0,0,1,14.9753,11.2384,40.09556,40.09556,0,0,1,8.6168,16.624,22.62356,22.62356,0,0,1,.0881,10.528A13.25689,13.25689,0,0,1,291.91339,72.63181Z"/>
        </g>
        <path class="cls-3" d="M289.91339,68.63181a13.25747,13.25747,0,0,1-7.5476,2.9931,22.62418,22.62418,0,0,1-10.3703-1.8226,40.09535,40.09535,0,0,1-14.9753-11.2383,40.09533,40.09533,0,0,1-8.6168-16.6241,22.62355,22.62355,0,0,1-.0881-10.528,12.71149,12.71149,0,0,1,11.7437-9.9437,22.624,22.624,0,0,1,10.3702,1.8226,40.0956,40.0956,0,0,1,14.9753,11.2384,40.09556,40.09556,0,0,1,8.6168,16.624,22.62356,22.62356,0,0,1,.0881,10.528A13.25689,13.25689,0,0,1,289.91339,68.63181Z"/>
      </g>
      <g>
        <g class="cls-2">
          <path d="M298.156,131.05261a18.40662,18.40662,0,0,1-8.1607,4.3551,23.857,23.857,0,0,1-10.925.0012,35.49024,35.49024,0,0,1-26.2309-28.2222,23.85617,23.85617,0,0,1,.7993-10.8958,18.08332,18.08332,0,0,1,13.1002-12.1759,23.85567,23.85567,0,0,1,10.925-.0013,35.48986,35.48986,0,0,1,26.2309,28.2222,23.85751,23.85751,0,0,1-.7992,10.8958A18.40692,18.40692,0,0,1,298.156,131.05261Z"/>
        </g>
        <path class="cls-3" d="M296.156,127.05261a18.40662,18.40662,0,0,1-8.1607,4.3551,23.857,23.857,0,0,1-10.925.0012,35.49024,35.49024,0,0,1-26.2309-28.2222,23.85617,23.85617,0,0,1,.7993-10.8958,18.08332,18.08332,0,0,1,13.1002-12.1759,23.85567,23.85567,0,0,1,10.925-.0013,35.48986,35.48986,0,0,1,26.2309,28.2222,23.85751,23.85751,0,0,1-.7992,10.8958A18.40692,18.40692,0,0,1,296.156,127.05261Z"/>
      </g>
      <g>
        <g class="cls-2">
          <path d="M301.91679,189.76081a23.84554,23.84554,0,0,1-19.4515,6.5861,31.76969,31.76969,0,0,1-27.8125-27.8151,23.1794,23.1794,0,0,1,26.038-26.0347,31.76972,31.76972,0,0,1,27.8124,27.8151A23.84518,23.84518,0,0,1,301.91679,189.76081Z"/>
        </g>
        <path class="cls-3" d="M299.91679,185.76081a23.84554,23.84554,0,0,1-19.4515,6.5861,31.76969,31.76969,0,0,1-27.8125-27.8151,23.1794,23.1794,0,0,1,26.038-26.0347,31.76972,31.76972,0,0,1,27.8124,27.8151A23.84518,23.84518,0,0,1,299.91679,185.76081Z"/>
      </g>
      <g>
        <g class="cls-2">
          <circle cx="282.83457" cy="228.99961" r="27.45193" transform="translate(-76.5002 286.57336) rotate(-48.09842)"/>
        </g>
        <circle class="cls-3" cx="280.83457" cy="224.99961" r="27.45193" transform="translate(-74.18732 283.75619) rotate(-48.09842)"/>
      </g>
      <g>
        <g class="cls-2">
          <path d="M299.41649,306.41711a31.06511,31.06511,0,0,1-18.7299,9.0851,23.17817,23.17817,0,0,1-26.0348-26.0371,31.77186,31.77186,0,0,1,27.8151-27.8131,23.17817,23.17817,0,0,1,26.0348,26.0371A31.06523,31.06523,0,0,1,299.41649,306.41711Z"/>
        </g>
        <path class="cls-3" d="M297.41649,302.41711a31.06511,31.06511,0,0,1-18.7299,9.0851,23.17817,23.17817,0,0,1-26.0348-26.0371,31.77186,31.77186,0,0,1,27.8151-27.8131,23.17817,23.17817,0,0,1,26.0348,26.0371A31.06523,31.06523,0,0,1,297.41649,302.41711Z"/>
      </g>
      <g>
        <g class="cls-2">
          <path d="M294.05519,364.54191a34.25127,34.25127,0,0,1-17.8213,9.2642,23.85752,23.85752,0,0,1-10.9087-.6087,18.08147,18.08147,0,0,1-12.402-12.8858,23.857,23.857,0,0,1-.1909-10.9232,35.49407,35.49407,0,0,1,27.7612-26.7191,23.85658,23.85658,0,0,1,10.9088.6087,18.0811,18.0811,0,0,1,12.4019,12.8858,23.85562,23.85562,0,0,1,.191,10.9232A34.25013,34.25013,0,0,1,294.05519,364.54191Z"/>
        </g>
        <path class="cls-3" d="M292.05519,360.54191a34.25127,34.25127,0,0,1-17.8213,9.2642,23.85752,23.85752,0,0,1-10.9087-.6087,18.08147,18.08147,0,0,1-12.402-12.8858,23.857,23.857,0,0,1-.1909-10.9232,35.49407,35.49407,0,0,1,27.7612-26.7191,23.85658,23.85658,0,0,1,10.9088.6087,18.0811,18.0811,0,0,1,12.4019,12.8858,23.85562,23.85562,0,0,1,.191,10.9232A34.25013,34.25013,0,0,1,292.05519,360.54191Z"/>
      </g>
      <g>
        <g class="cls-2">
          <path d="M285.39279,421.5054a40.08806,40.08806,0,0,1-16.5227,8.8085,22.62276,22.62276,0,0,1-10.5262.2095,12.71391,12.71391,0,0,1-10.0802-11.628,22.62134,22.62134,0,0,1,1.7008-10.39019,42.06471,42.06471,0,0,1,27.5858-23.9141,22.62143,22.62143,0,0,1,10.5262-.2095,12.71393,12.71393,0,0,1,10.0802,11.6279,22.62159,22.62159,0,0,1-1.7008,10.3903A40.0868,40.0868,0,0,1,285.39279,421.5054Z"/>
        </g>
        <path class="cls-3" d="M283.39279,417.5054a40.08806,40.08806,0,0,1-16.5227,8.8085,22.62276,22.62276,0,0,1-10.5262.2095,12.71391,12.71391,0,0,1-10.0802-11.628,22.62134,22.62134,0,0,1,1.7008-10.39019,42.06471,42.06471,0,0,1,27.5858-23.9141,22.62143,22.62143,0,0,1,10.5262-.2095,12.71393,12.71393,0,0,1,10.0802,11.6279,22.62159,22.62159,0,0,1-1.7008,10.3903A40.0868,40.0868,0,0,1,283.39279,417.5054Z"/>
      </g>
      <g>
        <g class="cls-2">
          <circle cx="221.99989" cy="46.28224" r="24.81236" transform="translate(26.78942 161.68964) rotate(-42.36762)"/>
        </g>
        <circle class="cls-3" cx="219.99989" cy="42.28224" r="24.81236" transform="translate(28.96263 159.29722) rotate(-42.36762)"/>
      </g>
      <g>
        <g class="cls-2">
          <circle cx="222.00059" cy="107.16229" r="26.42525" transform="translate(-15.05958 174.76771) rotate(-41.68437)"/>
        </g>
        <circle class="cls-3" cx="220.00059" cy="103.16229" r="26.42525" transform="translate(-12.90583 172.42494) rotate(-41.68437)"/>
      </g>
      <g>
        <g class="cls-2">
          <circle cx="222.00039" cy="168.16544" r="27.45193" transform="translate(-54.35388 202.69229) rotate(-44.26541)"/>
        </g>
        <circle class="cls-3" cx="220.00039" cy="164.16544" r="27.45193" transform="translate(-52.12972 200.16078) rotate(-44.26541)"/>
      </g>
      <g>
        <g class="cls-2">
          <circle cx="222.00009" cy="228.99991" r="27.85166" transform="translate(-96.90507 224.05029) rotate(-45)"/>
        </g>
        <circle class="cls-3" cx="220.00009" cy="224.99991" r="27.85166" transform="translate(-94.66243 221.46451) rotate(-45)"/>
      </g>
      <g>
        <g class="cls-2">
          <circle cx="221.99912" cy="289.83433" r="27.45244" transform="translate(-138.89304 234.65825) rotate(-43.8571)"/>
        </g>
        <circle class="cls-3" cx="219.99912" cy="285.83433" r="27.45244" transform="translate(-136.67945 232.1568) rotate(-43.8571)"/>
      </g>
      <g>
        <g class="cls-2">
          <circle cx="221.99677" cy="350.83748" r="26.42645" transform="translate(-179.82888 246.40736) rotate(-43.10764)"/>
        </g>
        <circle class="cls-3" cx="219.99677" cy="346.83748" r="26.42645" transform="translate(-177.63526 243.96091) rotate(-43.10764)"/>
      </g>
      <g>
        <g class="cls-2">
          <circle cx="221.99797" cy="411.71711" r="24.81087" transform="translate(-214.85359 244.52024) rotate(-40.72302)"/>
        </g>
        <circle class="cls-3" cx="219.99797" cy="407.71711" r="24.81087" transform="translate(-212.72823 242.24692) rotate(-40.72302)"/>
      </g>
      <g>
        <g class="cls-2">
          <path d="M182.96929,64.59971a40.092,40.092,0,0,1-16.5227,8.8087,22.62269,22.62269,0,0,1-10.5265.21,12.71252,12.71252,0,0,1-10.0797-11.6277,22.62355,22.62355,0,0,1,1.7015-10.3904,42.07,42.07,0,0,1,27.5865-23.9141,22.62227,22.62227,0,0,1,10.5264-.2099,12.71276,12.71276,0,0,1,10.0798,11.6277,22.62189,22.62189,0,0,1-1.7016,10.3903A40.09189,40.09189,0,0,1,182.96929,64.59971Z"/>
        </g>
        <path class="cls-3" d="M180.96929,60.59971a40.092,40.092,0,0,1-16.5227,8.8087,22.62269,22.62269,0,0,1-10.5265.21,12.71252,12.71252,0,0,1-10.0797-11.6277,22.62355,22.62355,0,0,1,1.7015-10.3904,42.07,42.07,0,0,1,27.5865-23.9141,22.62227,22.62227,0,0,1,10.5264-.2099,12.71276,12.71276,0,0,1,10.0798,11.6277,22.62189,22.62189,0,0,1-1.7016,10.3903A40.09189,40.09189,0,0,1,180.96929,60.59971Z"/>
      </g>
      <g>
        <g class="cls-2">
          <path d="M181.32619,126.06661a34.24833,34.24833,0,0,1-17.821,9.2643,23.85557,23.85557,0,0,1-10.9086-.6087,18.08172,18.08172,0,0,1-12.4024-12.8856,23.85659,23.85659,0,0,1-.1915-10.9231,35.49245,35.49245,0,0,1,27.7604-26.7195,23.85694,23.85694,0,0,1,10.9086.6087,18.08172,18.08172,0,0,1,12.4024,12.8856,23.85659,23.85659,0,0,1,.1915,10.9231A34.248,34.248,0,0,1,181.32619,126.06661Z"/>
        </g>
        <path class="cls-3" d="M179.32619,122.06661a34.24833,34.24833,0,0,1-17.821,9.2643,23.85557,23.85557,0,0,1-10.9086-.6087,18.08172,18.08172,0,0,1-12.4024-12.8856,23.85659,23.85659,0,0,1-.1915-10.9231,35.49245,35.49245,0,0,1,27.7604-26.7195,23.85694,23.85694,0,0,1,10.9086.6087,18.08172,18.08172,0,0,1,12.4024,12.8856,23.85659,23.85659,0,0,1,.1915,10.9231A34.248,34.248,0,0,1,179.32619,122.06661Z"/>
      </g>
      <g>
        <g class="cls-2">
          <path d="M180.26289,187.26291a31.0647,31.0647,0,0,1-18.7297,9.0854,23.17817,23.17817,0,0,1-26.0353-26.0366,31.77186,31.77186,0,0,1,27.8146-27.8136,23.17817,23.17817,0,0,1,26.0353,26.0366A31.06536,31.06536,0,0,1,180.26289,187.26291Z"/>
        </g>
        <path class="cls-3" d="M178.26289,183.26291a31.0647,31.0647,0,0,1-18.7297,9.0854,23.17817,23.17817,0,0,1-26.0353-26.0366,31.77186,31.77186,0,0,1,27.8146-27.8136,23.17817,23.17817,0,0,1,26.0353,26.0366A31.06536,31.06536,0,0,1,178.26289,183.26291Z"/>
      </g>
      <g>
        <g class="cls-2">
          <circle cx="161.16567" cy="229.00088" r="27.45244" transform="translate(-114.5083 179.81104) rotate(-44.74589)"/>
        </g>
        <circle class="cls-3" cx="159.16567" cy="225.00088" r="27.45244" transform="translate(-112.27197 177.24405) rotate(-44.74589)"/>
      </g>
      <g>
        <g class="cls-2">
          <path d="M182.75959,308.91661a23.84776,23.84776,0,0,1-19.4514,6.5869,31.76683,31.76683,0,0,1-27.812-27.8147,23.18136,23.18136,0,0,1,26.0386-26.0353,31.76683,31.76683,0,0,1,27.812,27.8147A23.84719,23.84719,0,0,1,182.75959,308.91661Z"/>
        </g>
        <path class="cls-3" d="M180.75959,304.91661a23.84776,23.84776,0,0,1-19.4514,6.5869,31.76683,31.76683,0,0,1-27.812-27.8147,23.18136,23.18136,0,0,1,26.0386-26.0353,31.76683,31.76683,0,0,1,27.812,27.8147A23.84719,23.84719,0,0,1,180.75959,304.91661Z"/>
      </g>
      <g>
        <g class="cls-2">
          <path d="M185.41679,369.52981a18.41046,18.41046,0,0,1-8.161,4.3555,23.8562,23.8562,0,0,1-10.9248.0024,35.48232,35.48232,0,0,1-26.23-28.2222,23.858,23.858,0,0,1,.8007-10.8955,18.08821,18.08821,0,0,1,13.1013-12.1765,23.85758,23.85758,0,0,1,10.9248-.0024,35.48232,35.48232,0,0,1,26.23,28.2222,23.85653,23.85653,0,0,1-.8007,10.8955A18.41123,18.41123,0,0,1,185.41679,369.52981Z"/>
        </g>
        <path class="cls-3" d="M183.41679,365.52981a18.41046,18.41046,0,0,1-8.161,4.3555,23.8562,23.8562,0,0,1-10.9248.0024,35.48232,35.48232,0,0,1-26.23-28.2222,23.858,23.858,0,0,1,.8007-10.8955,18.08821,18.08821,0,0,1,13.1013-12.1765,23.85758,23.85758,0,0,1,10.9248-.0024,35.48232,35.48232,0,0,1,26.23,28.2222,23.85653,23.85653,0,0,1-.8007,10.8955A18.41123,18.41123,0,0,1,183.41679,365.52981Z"/>
      </g>
      <g>
        <g class="cls-2">
          <path d="M189.48949,429.5382a13.254,13.254,0,0,1-7.5471,2.993,22.62406,22.62406,0,0,1-10.3705-1.8231,42.08211,42.08211,0,0,1-23.5946-27.86079,22.62519,22.62519,0,0,1-.0901-10.5284,12.70791,12.70791,0,0,1,11.7418-9.9437,22.62507,22.62507,0,0,1,10.3705,1.823,42.08256,42.08256,0,0,1,23.5946,27.8609,22.6234,22.6234,0,0,1,.0902,10.52829A13.25391,13.25391,0,0,1,189.48949,429.5382Z"/>
        </g>
        <path class="cls-3" d="M187.48949,425.5382a13.254,13.254,0,0,1-7.5471,2.993,22.62406,22.62406,0,0,1-10.3705-1.8231,42.08211,42.08211,0,0,1-23.5946-27.86079,22.62519,22.62519,0,0,1-.0901-10.5284,12.70791,12.70791,0,0,1,11.7418-9.9437,22.62507,22.62507,0,0,1,10.3705,1.823,42.08256,42.08256,0,0,1,23.5946,27.8609,22.6234,22.6234,0,0,1,.0902,10.52829A13.25391,13.25391,0,0,1,187.48949,425.5382Z"/>
      </g>
      <g>
        <g class="cls-2">
          <path d="M128.0271,70.06141a86.536,86.536,0,0,1-14.4064,9.7289,47.08259,47.08259,0,0,1-5.7915,2.596,23.41182,23.41182,0,0,1-4.8511,1.2706,8.99232,8.99232,0,0,1-3.5244-.0854,3.56527,3.56527,0,0,1-2.9039-3.5258,8.99556,8.99556,0,0,1,.5916-3.4773,23.42875,23.42875,0,0,1,2.1775-4.5207,47.10948,47.10948,0,0,1,3.6593-5.1898A91.49,91.49,0,0,1,129.6846,44.858a47.08246,47.08246,0,0,1,5.79149-2.596,23.41182,23.41182,0,0,1,4.8511-1.2706,8.99232,8.99232,0,0,1,3.5244.0854,3.56527,3.56527,0,0,1,2.9039,3.5258,8.99556,8.99556,0,0,1-.5916,3.4773,23.42875,23.42875,0,0,1-2.1775,4.5207,47.10948,47.10948,0,0,1-3.6593,5.1898A86.54527,86.54527,0,0,1,128.0271,70.06141Z"/>
        </g>
        <path class="cls-3" d="M126.0271,66.06141a86.536,86.536,0,0,1-14.4064,9.7289,47.08259,47.08259,0,0,1-5.7915,2.596,23.41182,23.41182,0,0,1-4.8511,1.2706,8.99232,8.99232,0,0,1-3.5244-.0854,3.56527,3.56527,0,0,1-2.9039-3.5258,8.99556,8.99556,0,0,1,.5916-3.4773,23.42875,23.42875,0,0,1,2.1775-4.5207,47.10948,47.10948,0,0,1,3.6593-5.1898A91.49,91.49,0,0,1,127.6846,40.858a47.08246,47.08246,0,0,1,5.79149-2.596,23.41182,23.41182,0,0,1,4.8511-1.2706,8.99232,8.99232,0,0,1,3.5244.0854,3.56527,3.56527,0,0,1,2.9039,3.5258,8.99556,8.99556,0,0,1-.5916,3.4773,23.42875,23.42875,0,0,1-2.1775,4.5207,47.10948,47.10948,0,0,1-3.6593,5.1898A86.54527,86.54527,0,0,1,126.0271,66.06141Z"/>
      </g>
      <g>
        <g class="cls-2">
          <path d="M73.6413,80.64321c-4.1865,4.1864-8.2869,8.448-12.2621,12.8369-1.6654,1.8386-3.3061,3.6971-4.902,5.5967-1.2081,1.4379-2.392,2.8914-3.5034,4.407a18.96843,18.96843,0,0,0-1.8254,2.8336,2.9302,2.9302,0,0,0-.2947.8028c-.0267.1562-.0607.2869.0734.421s.2648.1.421.0734a2.92987,2.92987,0,0,0,.8029-.2948,18.97141,18.97141,0,0,0,2.8342-1.8258c1.5159-1.1116,2.9696-2.2958,4.4078-3.5041,1.8999-1.5962,3.7587-3.2372,5.5976-4.9028,4.3881-3.9745,8.649-8.0742,12.8347-12.2599,4.1865-4.1864,8.2869-8.448,12.2621-12.8369,1.6654-1.8386,3.3061-3.6971,4.9021-5.5968,1.208-1.4378,2.3919-2.8913,3.5033-4.4069a18.96843,18.96843,0,0,0,1.8254-2.8336,2.93042,2.93042,0,0,0,.2948-.8028c.0266-.1562.0606-.287-.0735-.421s-.2648-.1001-.421-.0734a2.92987,2.92987,0,0,0-.8029.2948,18.97141,18.97141,0,0,0-2.8342,1.8258c-1.5159,1.1116-2.9696,2.2958-4.4077,3.504-1.9,1.5962-3.7588,3.2373-5.5977,4.9028C82.0879,72.35781,77.827,76.45741,73.6413,80.64321Z"/>
        </g>
        <path class="cls-3" d="M71.6413,76.64321c-4.1865,4.1864-8.2869,8.448-12.2621,12.8369-1.6654,1.8386-3.3061,3.6971-4.902,5.5967-1.2081,1.4379-2.392,2.8914-3.5034,4.407a18.96843,18.96843,0,0,0-1.8254,2.8336,2.9302,2.9302,0,0,0-.2947.8028c-.0267.1562-.0607.2869.0734.421s.2648.1.421.0734a2.92987,2.92987,0,0,0,.8029-.2948,18.97141,18.97141,0,0,0,2.8342-1.8258c1.5159-1.1116,2.9696-2.2958,4.4078-3.5041,1.8999-1.5962,3.7587-3.2372,5.5976-4.9028,4.3881-3.9745,8.649-8.0742,12.8347-12.2599,4.1865-4.1864,8.2869-8.448,12.2621-12.8369,1.6654-1.8386,3.3061-3.6971,4.9021-5.5968,1.208-1.4378,2.3919-2.8913,3.5033-4.4069a18.96843,18.96843,0,0,0,1.8254-2.8336,2.93042,2.93042,0,0,0,.2948-.8028c.0266-.1562.0606-.287-.0735-.421s-.2648-.1001-.421-.0734a2.92987,2.92987,0,0,0-.8029.2948,18.97141,18.97141,0,0,0-2.8342,1.8258c-1.5159,1.1116-2.9696,2.2958-4.4077,3.504-1.9,1.5962-3.7588,3.2373-5.5977,4.9028C80.0879,68.35781,75.827,72.45741,71.6413,76.64321Z"/>
      </g>
      <g>
        <g class="cls-2">
          <path d="M122.6564,129.65761a43.32537,43.32537,0,0,1-16.2497,10.4525,23.62032,23.62032,0,0,1-10.8742,1.2605,12.41616,12.41616,0,0,1-11.0268-11.027,23.62191,23.62191,0,0,1,1.2609-10.8752,45.53108,45.53108,0,0,1,26.7012-26.7009A23.62149,23.62149,0,0,1,123.342,91.507a12.41614,12.41614,0,0,1,11.02679,11.027,23.62191,23.62191,0,0,1-1.2609,10.8752A43.324,43.324,0,0,1,122.6564,129.65761Z"/>
        </g>
        <path class="cls-3" d="M120.6564,125.65761a43.32537,43.32537,0,0,1-16.2497,10.4525,23.62032,23.62032,0,0,1-10.8742,1.2605,12.41616,12.41616,0,0,1-11.0268-11.027,23.62191,23.62191,0,0,1,1.2609-10.8752,45.53108,45.53108,0,0,1,26.7012-26.7009A23.62149,23.62149,0,0,1,121.342,87.507a12.41614,12.41614,0,0,1,11.02679,11.027,23.62191,23.62191,0,0,1-1.2609,10.8752A43.324,43.324,0,0,1,120.6564,125.65761Z"/>
      </g>
      <g>
        <g class="cls-2">
          <path d="M63.061,135.02971a86.52727,86.52727,0,0,1-12.2783,12.3058,47.06591,47.06591,0,0,1-5.1876,3.6562,23.40805,23.40805,0,0,1-4.5183,2.1752,8.99214,8.99214,0,0,1-3.4756.5905,3.56592,3.56592,0,0,1-3.5252-2.905,8.99613,8.99613,0,0,1-.0849-3.5263,23.43149,23.43149,0,0,1,1.272-4.8538,47.1093,47.1093,0,0,1,2.5982-5.7941,91.47832,91.47832,0,0,1,22.0025-26.7038,47.06591,47.06591,0,0,1,5.1876-3.6562,23.40805,23.40805,0,0,1,4.5183-2.1752,8.99164,8.99164,0,0,1,3.4755-.5905,3.56571,3.56571,0,0,1,3.5252,2.905,8.99425,8.99425,0,0,1,.085,3.5263,23.43776,23.43776,0,0,1-1.272,4.8538,47.1093,47.1093,0,0,1-2.5982,5.7941A86.53883,86.53883,0,0,1,63.061,135.02971Z"/>
        </g>
        <path class="cls-3" d="M61.061,131.02971a86.52727,86.52727,0,0,1-12.2783,12.3058,47.06591,47.06591,0,0,1-5.1876,3.6562,23.40805,23.40805,0,0,1-4.5183,2.1752,8.99214,8.99214,0,0,1-3.4756.5905,3.56592,3.56592,0,0,1-3.5252-2.905,8.99613,8.99613,0,0,1-.0849-3.5263,23.43149,23.43149,0,0,1,1.272-4.8538,47.1093,47.1093,0,0,1,2.5982-5.7941,91.47832,91.47832,0,0,1,22.0025-26.7038,47.06591,47.06591,0,0,1,5.1876-3.6562,23.40805,23.40805,0,0,1,4.5183-2.1752,8.99164,8.99164,0,0,1,3.4755-.5905,3.56571,3.56571,0,0,1,3.5252,2.905,8.99425,8.99425,0,0,1,.085,3.5263,23.43776,23.43776,0,0,1-1.272,4.8538,47.1093,47.1093,0,0,1-2.5982,5.7941A86.53883,86.53883,0,0,1,61.061,131.02971Z"/>
      </g>
      <g>
        <g class="cls-2">
          <path d="M119.0665,188.32771a34.25,34.25,0,0,1-17.4534,9.9397,23.85493,23.85493,0,0,1-10.924-.1905,18.0811,18.0811,0,0,1-12.8863-12.4015,23.85678,23.85678,0,0,1-.6091-10.9079,35.49387,35.49387,0,0,1,26.7179-27.7624,23.85767,23.85767,0,0,1,10.924.1905,18.08156,18.08156,0,0,1,12.8863,12.4015,23.85683,23.85683,0,0,1,.609,10.9079A34.24916,34.24916,0,0,1,119.0665,188.32771Z"/>
        </g>
        <path class="cls-3" d="M117.0665,184.32771a34.25,34.25,0,0,1-17.4534,9.9397,23.85493,23.85493,0,0,1-10.924-.1905,18.0811,18.0811,0,0,1-12.8863-12.4015,23.85678,23.85678,0,0,1-.6091-10.9079,35.49387,35.49387,0,0,1,26.7179-27.7624,23.85767,23.85767,0,0,1,10.924.1905,18.08156,18.08156,0,0,1,12.8863,12.4015,23.85683,23.85683,0,0,1,.609,10.9079A34.24916,34.24916,0,0,1,117.0665,184.32771Z"/>
      </g>
      <g>
        <g class="cls-2">
          <path d="M57.6004,189.97241a40.08608,40.08608,0,0,1-15.106,11.0633,22.62151,22.62151,0,0,1-10.39,1.7006,12.71384,12.71384,0,0,1-11.6278-10.0804,22.62228,22.62228,0,0,1,.2096-10.5264,42.06488,42.06488,0,0,1,23.9144-27.5856,22.62173,22.62173,0,0,1,10.39-1.7006,12.71408,12.71408,0,0,1,11.6279,10.0804,22.62361,22.62361,0,0,1-.2097,10.5264A40.087,40.087,0,0,1,57.6004,189.97241Z"/>
        </g>
        <path class="cls-3" d="M55.6004,185.97241a40.08608,40.08608,0,0,1-15.106,11.0633,22.62151,22.62151,0,0,1-10.39,1.7006,12.71384,12.71384,0,0,1-11.6278-10.0804,22.62228,22.62228,0,0,1,.2096-10.5264,40.087,40.087,0,0,1,8.8084-16.5223,40.08686,40.08686,0,0,1,15.106-11.0633,22.62173,22.62173,0,0,1,10.39-1.7006,12.71408,12.71408,0,0,1,11.6279,10.0804,22.62361,22.62361,0,0,1-.2097,10.5264A40.087,40.087,0,0,1,55.6004,185.97241Z"/>
      </g>
      <g>
        <g class="cls-2">
          <circle cx="100.16252" cy="229.00323" r="26.42645" transform="translate(-137.46721 151.49761) rotate(-48.31184)"/>
        </g>
        <circle class="cls-3" cx="98.16252" cy="225.00323" r="26.42645" transform="translate(-135.14996 148.66436) rotate(-48.31184)"/>
      </g>
      <g>
        <g class="cls-2">
          <circle cx="39.2829" cy="229.00203" r="24.81087" transform="translate(-161.55422 112.17084) rotate(-50.07878)"/>
        </g>
        <circle class="cls-3" cx="37.2829" cy="225.00203" r="24.81087" transform="translate(-159.20305 109.20392) rotate(-50.07878)"/>
      </g>
      <g>
        <g class="cls-2">
          <path d="M124.0509,305.158a18.41118,18.41118,0,0,1-7.8208,4.9403,23.85747,23.85747,0,0,1-10.8954.8007,35.48236,35.48236,0,0,1-28.2224-26.2298,23.858,23.858,0,0,1,.0023-10.9249,18.08812,18.08812,0,0,1,12.1765-13.1014,23.85877,23.85877,0,0,1,10.8954-.8008,35.48237,35.48237,0,0,1,28.2223,26.2299,23.85663,23.85663,0,0,1-.0023,10.9249A18.41053,18.41053,0,0,1,124.0509,305.158Z"/>
        </g>
        <path class="cls-3" d="M122.0509,301.158a18.41118,18.41118,0,0,1-7.8208,4.9403,23.85747,23.85747,0,0,1-10.8954.8007,35.48236,35.48236,0,0,1-28.2224-26.2298,23.858,23.858,0,0,1,.0023-10.9249,18.08812,18.08812,0,0,1,12.1765-13.1014,23.85877,23.85877,0,0,1,10.8954-.8008,35.48237,35.48237,0,0,1,28.2223,26.2299,23.85663,23.85663,0,0,1-.0023,10.9249A18.41053,18.41053,0,0,1,122.0509,301.158Z"/>
      </g>
      <g>
        <g class="cls-2">
          <path d="M65.6318,298.91811a13.25442,13.25442,0,0,1-6.9513,4.1949,22.62683,22.62683,0,0,1-10.5291-.0906,40.10424,40.10424,0,0,1-16.6216-8.6187,40.10392,40.10392,0,0,1-11.2385-14.9769,22.62464,22.62464,0,0,1-1.8225-10.3698,12.70815,12.70815,0,0,1,9.9443-11.7414,22.62417,22.62417,0,0,1,10.5291.0906,40.10307,40.10307,0,0,1,16.6216,8.6187,40.10358,40.10358,0,0,1,11.2385,14.9768,22.62464,22.62464,0,0,1,1.8225,10.3698A13.25412,13.25412,0,0,1,65.6318,298.91811Z"/>
        </g>
        <path class="cls-3" d="M63.6318,294.91811a13.25442,13.25442,0,0,1-6.9513,4.1949,22.62683,22.62683,0,0,1-10.5291-.0906,40.10424,40.10424,0,0,1-16.6216-8.6187,40.10392,40.10392,0,0,1-11.2385-14.9769,22.62464,22.62464,0,0,1-1.8225-10.3698,12.70815,12.70815,0,0,1,9.9443-11.7414,22.62417,22.62417,0,0,1,10.5291.0906,40.10307,40.10307,0,0,1,16.6216,8.6187,40.10358,40.10358,0,0,1,11.2385,14.9768,22.62464,22.62464,0,0,1,1.8225,10.3698A13.25412,13.25412,0,0,1,63.6318,294.91811Z"/>
      </g>
      <g>
        <g class="cls-2">
          <path d="M130.7921,362.93191a13.04017,13.04017,0,0,1-7.4621,3.569,23.61818,23.61818,0,0,1-10.8748-1.2569,45.49777,45.49777,0,0,1-26.7-26.7016,23.616,23.616,0,0,1-1.256-10.8734,12.42734,12.42734,0,0,1,11.0309-11.0301,23.618,23.618,0,0,1,10.8748,1.2569,45.49753,45.49753,0,0,1,26.70009,26.7016,23.61749,23.61749,0,0,1,1.256,10.8734A13.03981,13.03981,0,0,1,130.7921,362.93191Z"/>
        </g>
        <path class="cls-3" d="M128.7921,358.93191a13.04017,13.04017,0,0,1-7.4621,3.569,23.61818,23.61818,0,0,1-10.8748-1.2569,45.49777,45.49777,0,0,1-26.7-26.7016,23.616,23.616,0,0,1-1.256-10.8734,12.42734,12.42734,0,0,1,11.0309-11.0301,23.618,23.618,0,0,1,10.8748,1.2569,45.49753,45.49753,0,0,1,26.70009,26.7016,23.61749,23.61749,0,0,1,1.256,10.8734A13.03981,13.03981,0,0,1,128.7921,358.93191Z"/>
      </g>
      <g>
        <g class="cls-2">
          <path d="M78.2412,350.91461a3.65006,3.65006,0,0,1-2.1677,1.0959,8.99456,8.99456,0,0,1-3.524-.1478,23.436,23.436,0,0,1-4.7597-1.5892,47.11956,47.11956,0,0,1-5.611-2.9743,91.524,91.524,0,0,1-25.2002-23.7096,47.0938,47.0938,0,0,1-3.3084-5.4166,23.41642,23.41642,0,0,1-1.8745-4.6513,8.99164,8.99164,0,0,1-.3617-3.5065,3.56326,3.56326,0,0,1,3.1294-3.3255,8.99464,8.99464,0,0,1,3.524.1478,23.43721,23.43721,0,0,1,4.7596,1.5892,47.11473,47.11473,0,0,1,5.6111,2.9744,86.57839,86.57839,0,0,1,13.7271,10.6497,86.55977,86.55977,0,0,1,11.473,13.0599,47.07849,47.07849,0,0,1,3.3084,5.4165,23.42763,23.42763,0,0,1,1.8746,4.6513,8.99348,8.99348,0,0,1,.3616,3.5065A3.64987,3.64987,0,0,1,78.2412,350.91461Z"/>
        </g>
        <path class="cls-3" d="M76.2412,346.91461a3.65006,3.65006,0,0,1-2.1677,1.0959,8.99456,8.99456,0,0,1-3.524-.1478,23.436,23.436,0,0,1-4.7597-1.5892,47.11956,47.11956,0,0,1-5.611-2.9743,91.524,91.524,0,0,1-25.2002-23.7096,47.0938,47.0938,0,0,1-3.3084-5.4166,23.41642,23.41642,0,0,1-1.8745-4.6513,8.99164,8.99164,0,0,1-.3617-3.5065,3.56326,3.56326,0,0,1,3.1294-3.3255,8.99464,8.99464,0,0,1,3.524.1478,23.43721,23.43721,0,0,1,4.7596,1.5892,47.11473,47.11473,0,0,1,5.6111,2.9744,86.57839,86.57839,0,0,1,13.7271,10.6497,86.55977,86.55977,0,0,1,11.473,13.0599,47.07849,47.07849,0,0,1,3.3084,5.4165,23.42763,23.42763,0,0,1,1.8746,4.6513,8.99348,8.99348,0,0,1,.3616,3.5065A3.64987,3.64987,0,0,1,76.2412,346.91461Z"/>
      </g>
      <g>
        <g class="cls-2">
          <path d="M143.21429,418.6044a3.64965,3.64965,0,0,1-2.2306.9617,8.99576,8.99576,0,0,1-3.5084-.3626,23.43081,23.43081,0,0,1-4.6538-1.8766,47.1171,47.1171,0,0,1-5.41909-3.31109,91.52285,91.52285,0,0,1-23.7067-25.203,47.08846,47.08846,0,0,1-2.9717-5.6083,23.421,23.421,0,0,1-1.5873-4.757,8.99011,8.99011,0,0,1-.147-3.522,3.563,3.563,0,0,1,3.3263-3.1284,8.9981,8.9981,0,0,1,3.5085.3625,23.44527,23.44527,0,0,1,4.6538,1.8766,47.13844,47.13844,0,0,1,5.4191,3.3112,91.5241,91.5241,0,0,1,23.70669,25.2029,47.09616,47.09616,0,0,1,2.9717,5.6083,23.42189,23.42189,0,0,1,1.5873,4.7571,8.99006,8.99006,0,0,1,.147,3.522A3.64927,3.64927,0,0,1,143.21429,418.6044Z"/>
        </g>
        <path class="cls-3" d="M141.21429,414.6044a3.64965,3.64965,0,0,1-2.2306.9617,8.99576,8.99576,0,0,1-3.5084-.3626,23.43081,23.43081,0,0,1-4.6538-1.8766,47.1171,47.1171,0,0,1-5.41909-3.31109,91.52285,91.52285,0,0,1-23.7067-25.203,47.08846,47.08846,0,0,1-2.9717-5.6083,23.421,23.421,0,0,1-1.5873-4.757,8.99011,8.99011,0,0,1-.147-3.522,3.563,3.563,0,0,1,3.3263-3.1284,8.9981,8.9981,0,0,1,3.5085.3625,23.44527,23.44527,0,0,1,4.6538,1.8766,47.13844,47.13844,0,0,1,5.4191,3.3112,86.57789,86.57789,0,0,1,13.0518,11.4674,86.57161,86.57161,0,0,1,10.65489,13.7355,47.09616,47.09616,0,0,1,2.9717,5.6083,23.42189,23.42189,0,0,1,1.5873,4.7571,8.99006,8.99006,0,0,1,.147,3.522A3.64927,3.64927,0,0,1,141.21429,414.6044Z"/>
      </g>
      <g>
        <g class="cls-2">
          <path d="M100.5706,400.053c.1352-.1351.1047-.268.0795-.427a2.9,2.9,0,0,0-.2884-.8089,18.57363,18.57363,0,0,0-1.8126-2.8455c-1.1059-1.5201-2.2863-2.9766-3.4915-4.4174-1.5919-1.903-3.2297-3.764-4.8927-5.6047-3.9725-4.3967-8.0732-8.6628-12.2624-12.852s-8.4555-8.2902-12.8524-12.2627c-1.8406-1.663-3.7016-3.3008-5.6046-4.8927-1.4407-1.2051-2.8972-2.3854-4.4173-3.4913a18.58308,18.58308,0,0,0-2.8454-1.8126,2.90116,2.90116,0,0,0-.8088-.2883c-.159-.0252-.2919-.0557-.427.0795s-.1048.268-.0795.427a2.90179,2.90179,0,0,0,.2883.8089,18.58888,18.58888,0,0,0,1.8126,2.8455c1.106,1.5201,2.2864,2.9767,3.4916,4.4174,1.5918,1.903,3.2297,3.764,4.8927,5.6047,3.9725,4.3968,8.0732,8.6628,12.2624,12.852s8.4555,8.2902,12.8524,12.2628c1.8406,1.663,3.7016,3.3007,5.6046,4.8926,1.4407,1.2051,2.8972,2.3854,4.4172,3.4913a18.57363,18.57363,0,0,0,2.8455,1.8126,2.90116,2.90116,0,0,0,.8088.2883C100.3026,400.15781,100.4355,400.18821,100.5706,400.053Z"/>
        </g>
        <path class="cls-3" d="M98.5706,396.053c.1352-.1351.1047-.268.0795-.427a2.9,2.9,0,0,0-.2884-.8089,18.57363,18.57363,0,0,0-1.8126-2.8455c-1.1059-1.5201-2.2863-2.9766-3.4915-4.4174-1.5919-1.903-3.2297-3.764-4.8927-5.6047-3.9725-4.3967-8.0732-8.6628-12.2624-12.852s-8.4555-8.2902-12.8524-12.2627c-1.8406-1.663-3.7016-3.3008-5.6046-4.8927-1.4407-1.2051-2.8972-2.3854-4.4173-3.4913a18.58308,18.58308,0,0,0-2.8454-1.8126,2.90116,2.90116,0,0,0-.8088-.2883c-.159-.0252-.2919-.0557-.427.0795s-.1048.268-.0795.427a2.90179,2.90179,0,0,0,.2883.8089,18.58888,18.58888,0,0,0,1.8126,2.8455c1.106,1.5201,2.2864,2.9767,3.4916,4.4174,1.5918,1.903,3.2297,3.764,4.8927,5.6047,3.9725,4.3968,8.0732,8.6628,12.2624,12.852s8.4555,8.2902,12.8524,12.2628c1.8406,1.663,3.7016,3.3007,5.6046,4.8926,1.4407,1.2051,2.8972,2.3854,4.4172,3.4913a18.57363,18.57363,0,0,0,2.8455,1.8126,2.90116,2.90116,0,0,0,.8088.2883C98.3026,396.15781,98.4355,396.18821,98.5706,396.053Z"/>
      </g>
    </g>
  </g>
</svg>
